<?xml version="1.0" encoding="utf-8"?>
<!-- Generator: Adobe Illustrator 27.8.1, SVG Export Plug-In . SVG Version: 6.00 Build 0)  -->
<svg version="1.1" id="Calque_1" xmlns="http://www.w3.org/2000/svg" xmlns:xlink="http://www.w3.org/1999/xlink" x="0px" y="0px"
	 viewBox="0 0 650 187" style="enable-background:new 0 0 650 187;" xml:space="preserve">
<style type="text/css">
	.st0{fill:url(#SVGID_1_);}
	.st1{fill:url(#SVGID_00000018220467286788387050000004077260793339901886_);}
	.st2{fill:#FFFFFF;}
</style>
<g>
	<g>
		<linearGradient id="SVGID_1_" gradientUnits="userSpaceOnUse" x1="-14.3835" y1="15.6509" x2="70.4175" y2="173.1385">
			<stop  offset="0" style="stop-color:#C3FF1C"/>
			<stop  offset="0.842" style="stop-color:#19FB9B"/>
		</linearGradient>
		<path class="st0" d="M38.1,123.1c-3.8,22.9-23.2,33-37.1,32.4c0-0.6-0.1-1.3-0.1-2c0-38.2,0-76.5,0-114.7C0.9,19.8,15.1,4,34,1.9
			c1.3-0.1,2.6-0.2,4-0.3c0,31.4,0,62.6,0,93.7c0.1,0,0.2,0,0.3,0.1c0.2-0.5,0.3-1.1,0.5-1.6c2.8-9,11.4-14.3,20.9-12.9
			c8.8,1.3,15.5,9.1,15.5,18.3c0,28.5,0,57.1,0,85.6c0,0.6-0.1,1.1-0.1,1.8c-4,0-7.7-0.6-11.3-1.7c-15.2-4.8-25.7-19.2-25.7-35.1
			c0-8.2,0-16.4,0-24.6C38.1,124.5,38.1,123.8,38.1,123.1z"/>
		
			<linearGradient id="SVGID_00000016790560615634062390000001747679513506832534_" gradientUnits="userSpaceOnUse" x1="43.3502" y1="-15.4365" x2="128.1512" y2="142.0512">
			<stop  offset="0" style="stop-color:#C3FF1C"/>
			<stop  offset="0.842" style="stop-color:#19FB9B"/>
		</linearGradient>
		<path style="fill:url(#SVGID_00000016790560615634062390000001747679513506832534_);" d="M112.4,155.6c-8.5-0.1-16-2.5-22.4-7.6
			c-2.9-2.3-5.2-5.1-7.7-7.9c-0.6-0.6-0.9-1.8-0.9-2.7c-0.1-12.4-0.1-24.9,0-37.3c0-6.2-1.7-11.7-5.6-16.5c-0.4-0.5-0.7-1.3-0.7-2
			c0-26.1,0-52.2,0-78.3c0-0.5,0-0.9,0.1-1.5c4-0.1,7.8,0.6,11.6,1.8c15.3,5,25.6,19.3,25.6,35.4c0,38.2,0,76.3,0,114.5
			C112.4,154,112.4,154.7,112.4,155.6z"/>
	</g>
	<path class="st2" d="M164.6,60.6c0,8.6,0,17.1,0,25.8c8.5,0,16.9,0,25.5,0c0-8.5,0-17.1,0-25.8c4.7,0,9.3,0,13.9,0
		c0,21.1,0,42.2,0,63.5c-4.5,0-9,0-13.8,0c0-8.7,0-17.3,0-26.1c-8.6,0-17,0-25.6,0c0,8.7,0,17.4,0,26.2c-4.7,0-9.3,0-13.9,0
		c0-21.1,0-42.2,0-63.5C155.3,60.6,159.9,60.6,164.6,60.6z"/>
	<path class="st2" d="M438.5,124c-4.5,0-8.9,0-13.6,0c0-0.6,0-1.3,0-1.9c0-8,0-16,0-24c0-1.9-0.3-3.9-0.7-5.8
		c-0.7-3-2.5-4.5-5.6-4.8c-3.3-0.4-6.5,0.3-9.7,1.4c-0.4,0.2-0.8,1.2-0.8,1.8c0,10.4,0,20.8,0,31.1c0,0.7,0,1.4,0,2.2
		c-4.5,0-8.9,0-13.5,0c0-15.5,0-31,0-46.7c4.3,0,8.7,0,13.1,0c0.1,0.7,0.2,1.4,0.3,2.3c2.1-0.8,4-1.8,6-2.4
		c5.6-1.7,11.2-1.6,16.5,0.9c3.8,1.8,5.7,5.2,6.6,9.1c0.7,3.1,1.3,6.4,1.3,9.6c0.2,8.6,0.1,17.3,0.1,25.9
		C438.6,123.1,438.6,123.5,438.5,124z"/>
	<path class="st2" d="M335.7,77.3c0,3.7,0,7.1,0,10.7c-4,0-8,0-12.2,0c0,12.1,0,24,0,36.1c-4.6,0-9,0-13.6,0c0-12,0-23.8,0-36
		c-1.9,0-3.6,0-5.4,0c0-3.6,0-7.1,0-10.8c1.1,0,2.2-0.1,3.3,0c1.5,0.1,2.1-0.3,2.1-2c0-2.4,0.1-4.8,0.5-7.2c0.9-6.6,4-9.9,10.6-10.4
		c5-0.4,10.1,0.1,15.1,0.3c0,3.8,0,7.2,0,10.6c-2.2,0-4.3,0.1-6.3,0c-4.1-0.3-5.6,0.8-6.1,4.9c-0.2,1.2,0,2.4,0,3.8
		C327.6,77.3,331.6,77.3,335.7,77.3z"/>
	<path class="st2" d="M518,112.8c8.5,0,16.8,0,25.1,0c0,3.8,0,7.5,0,11.3c-12.9,0-25.8,0-38.9,0c0-21.1,0-42.2,0-63.5
		c4.5,0,9,0,13.8,0C518,77.9,518,95.2,518,112.8z"/>
	<path class="st2" d="M282.5,124.1c-4.6,0-9,0-13.5,0c0-15.5,0-31,0-46.6c4.3,0,8.7,0,13.4,0c0,1.4,0,2.9,0,4.6
		c5.4-2.6,10.4-5,16.2-5.9c0,4,0,7.9-0.1,11.7c0,0.4-0.9,1-1.5,1.2c-4.2,1.1-8.5,2.1-12.8,3.1c-1.4,0.3-1.9,1-1.9,2.5
		c0.1,9.1,0,18.2,0,27.3C282.5,122.6,282.5,123.3,282.5,124.1z"/>
	<path class="st2" d="M495.4,127.8c-0.2-5.5-2.9-9.4-8.3-10.5c-4.5-0.9-9.1-1.1-13.7-1.5c-2.6-0.3-5.3-0.3-7.9-0.6
		c-1.7-0.2-2.2-1.4-1.9-3.4c0.4-2.3,0.7-2.5,2.6-2.5c5.1,0.2,10.3,0.1,15.2-1.7c4.4-1.6,7.2-4.6,8.1-9.3c0.8-3.9,1-7.9-1.6-11.7
		c2.7,0.2,5,0.3,7.3,0.5c0-3.4,0-6.6,0-9.8c-2.5,0-4.8,0-7.1,0c-4.5,0.1-8.9,0.4-13.4-0.5c-5.1-0.9-10.2-0.8-15.3,0.6
		c-11.1,3.1-15.7,15.8-9.2,25.3c1.1,1.5,2.5,2.8,3.9,4.3c-0.2,0.4-0.5,0.9-0.8,1.3c-0.7,1.1-1.4,2.1-2,3.3c-1.8,3.4-1,6.3,2.7,9.9
		c-1,0.9-2,1.7-2.9,2.6c-3.3,3.1-4.8,6.8-3.9,11.4c1,5.1,4.7,7.4,9.2,8.5c9.4,2.4,18.8,2.3,28.2-0.3c4-1.1,7.3-3.4,9.3-7.2
		C495.3,133.8,495.6,130.8,495.4,127.8z M461.5,90.6c0.8-3,3.3-4.5,7.5-4.5c4,0,6.7,1.5,7.3,4.5c1,5-0.4,9.2-7.3,9.3
		C463.1,99.9,460,96.1,461.5,90.6z M479.3,133.9c-1.7,0.7-3.6,1-5.5,1.3c-1.1,0.2-2.2,0-3.3,0c0,0.1,0,0.2,0,0.3
		c-2.4-0.4-4.9-0.6-7.3-1.2c-1.6-0.4-2.8-1.4-2.8-3.3c0-1.6,1.5-4.5,2.7-5c0.2-0.1,0.5-0.1,0.7-0.1c4.9,0.3,9.8,0.7,14.6,1
		c1.6,0.1,2.9,0.7,3.2,2.5C481.9,131.5,481.1,133.2,479.3,133.9z"/>
	<path class="st2" d="M647.2,88.3c-1.7-6.4-5.9-10.4-12.5-11.6c-5.3-1-10.4-0.6-15.5,1.3c-0.6,0.2-1.1,0.4-2,0.6c0-6.8,0-13.4,0-20
		c-4.6,0-9,0-13.4,0c0,21.8,0,43.5,0,65.4c2.4,0.2,4.7,0.5,6.9,0.6c7,0.1,13.9,0.6,20.9,0.1c8.9-0.7,14-5.1,15.9-13.1
		C649.4,103.8,649.3,96,647.2,88.3z M634.2,107.4c-0.8,3.6-3.1,5.9-6.7,6.2c-3.3,0.3-6.6,0.1-10.1,0.1c0-0.7-0.1-1.2-0.1-1.7
		c0-7.3,0-14.5,0-21.8c0-1.2,0.3-1.8,1.5-2c2.5-0.3,5-0.8,7.5-0.8c4.1-0.1,6.8,2.1,7.7,6.1C635.2,98.1,635.2,102.8,634.2,107.4z"/>
	<path class="st2" d="M256.2,90c-0.3-8.6-4.6-12.9-13-13.5c-5.2-0.4-10.5,0-15.7,0.4c-3.3,0.3-6.6,1.2-10,1.8c0.1,3.1,0.3,6,0.4,8.9
		c0.6,0,0.8,0,1.1,0c5.6-0.2,11.3-0.6,16.9-0.7c5.9-0.2,7.3,1.3,6.9,7.2c0,0.1-0.1,0.2-0.2,0.6c-0.8,0.1-1.6,0.2-2.4,0.3
		c-4.5,0.4-9,0.5-13.4,1.2c-9.3,1.3-13.1,6.3-12.5,15.6c0,0.6,0.1,1.1,0.2,1.7c0.9,6.8,5.2,10.9,12,11.7c5.4,0.6,10.7-0.2,15.8-2.1
		c1.7-0.6,3-0.7,4.6,0.2c2.8,1.6,6,2.1,9.3,1.8C256.3,113.3,256.6,101.6,256.2,90z M242.8,112.7c0,0.4-0.5,1-0.8,1
		c-3,0.5-6,1.1-9,1.3c-2.9,0.2-4.5-1.3-4.9-3.8c-0.5-3.1,0.7-5.7,3.4-6.4c1.9-0.5,3.9-0.6,5.8-0.8c1.8-0.2,3.5-0.3,5.6-0.4
		C242.8,106.8,242.9,109.8,242.8,112.7z"/>
	<path class="st2" d="M591.2,90c-0.1-7.8-4.1-12.1-11.9-13.3c-8.8-1.4-17.4,0-26,2c-0.3,0.1-0.8,0.6-0.8,0.9c0.1,2.7,0.2,5.4,0.3,8
		c6.1-0.2,12-0.5,17.9-0.7c6.1-0.2,7.5,1.3,7,7.4c0,0.1,0,0.1-0.2,0.4c-0.6,0.1-1.2,0.2-1.8,0.2c-3.7,0.3-7.4,0.4-11,0.8
		c-2.7,0.3-5.3,0.9-7.9,1.8c-4.1,1.4-6.7,4.4-7.2,8.7c-0.3,2.7-0.3,5.4,0.1,8.1c0.9,6,4.4,9.4,10.3,10.6c6.4,1.3,12.5,0.1,18.4-2.2
		c0.9-0.4,1.7-0.4,2.6,0.2c3.1,1.8,6.5,2.4,10.1,2.4c0.1-0.4,0.1-0.6,0.1-0.8C591.2,112.9,591.4,101.5,591.2,90z M577.7,112.6
		c0,0.4-0.5,1.1-0.9,1.2c-3,0.5-6,1.1-9,1.3c-2.9,0.2-4.5-1.3-4.8-4.1c-0.4-3.2,0.9-5.7,3.6-6.2c3.6-0.6,7.3-0.8,11.2-1.3
		C577.8,106.8,577.8,109.7,577.7,112.6z"/>
	<path class="st2" d="M381.9,89.8c-0.1-7.3-4.2-11.8-11.4-13c-5.8-1-11.6-0.6-17.4,0.2c-3.3,0.5-6.6,1.2-10.1,1.9
		c0.2,3.1,0.3,6,0.5,8.9c2-0.1,3.8-0.2,5.6-0.3c5.1-0.1,10.2-0.3,15.4-0.3c2.4,0,3.6,1.3,3.9,3.6c0.1,1.3,0,2.6,0,4.1
		c-3.6,0.2-7,0.3-10.5,0.8c-3.5,0.4-7,1-10.3,2c-4.1,1.2-6.8,4.2-7.3,8.6c-0.3,2.7-0.4,5.5,0,8.2c0.8,5.8,4.4,9.4,10.2,10.5
		c6.4,1.3,12.5,0.2,18.4-2.1c1-0.4,1.8-0.4,2.7,0.2c3.1,1.8,6.4,2.4,10.1,2.3c0-0.4,0.1-0.7,0.1-1C382,112.7,382.1,101.2,381.9,89.8
		z M368.5,112.7c0,0.4-0.5,1-0.8,1c-3,0.5-6,1.1-9,1.3c-3.1,0.2-4.5-1.2-4.9-4.2c-0.4-3.1,0.9-5.6,3.7-6.1c3.6-0.6,7.2-0.8,11.1-1.2
		C368.5,106.8,368.5,109.8,368.5,112.7z"/>
</g>
</svg>
