<svg width="213" height="41" viewBox="0 0 213 41" fill="none" xmlns="http://www.w3.org/2000/svg">
<g id="Group 48179769">
<g id="Group 48179759">
<path id="Vector" d="M27.6184 8.32471e-10C30.9385 -4.36763e-07 32.5985 -7.13472e-07 34.0845 0.48285C35.3994 0.910078 36.6098 1.6089 37.6372 2.534C38.7984 3.57954 39.6284 5.01716 41.2884 7.89238L43.9652 12.5287C45.6252 15.4039 46.4552 16.8415 46.7801 18.3699C47.0675 19.7222 47.0675 21.1199 46.7801 22.4722C46.4552 24.0006 45.6252 25.4382 43.9652 28.3134L41.2884 32.9497C39.6284 35.8249 38.7984 37.2625 37.6372 38.3081C36.6098 39.2332 35.3994 39.932 34.0845 40.3592C32.5985 40.8421 30.9385 40.8421 27.6184 40.8421H22.2649C18.9449 40.8421 17.2849 40.8421 15.7988 40.3592C14.484 39.932 13.2736 39.2332 12.2461 38.3081C11.0849 37.2625 10.2549 35.8249 8.59493 32.9497L5.91817 28.3134C4.25815 25.4382 3.42815 24.0006 3.10328 22.4722C2.81584 21.1199 2.81583 19.7222 3.10328 18.3699C3.42815 16.8415 4.25815 15.4039 5.91817 12.5287L8.59493 7.89238C10.2549 5.01715 11.0849 3.57954 12.2461 2.534C13.2736 1.6089 14.484 0.91008 15.7988 0.482852C17.2849 1.80746e-06 18.9449 1.54952e-06 22.2649 1.18917e-06L27.6184 8.32471e-10Z" fill="#FFC72C"/>
<g id="Vector_2">
<path d="M11.3968 37.9237C11.9805 38.9397 12.2724 39.4477 12.6687 39.8299C13.1247 40.2697 13.6814 40.5911 14.2902 40.7661C14.8194 40.9182 15.4053 40.917 16.5771 40.9145C18.0193 40.9115 19.0369 40.9094 19.8558 40.8427C20.214 40.8135 20.3931 40.7989 20.4785 40.6968C20.5473 40.6145 20.57 40.481 20.5322 40.3806C20.4853 40.2561 20.3074 40.1772 19.9517 40.0193C16.6127 38.5373 13.4399 36.7062 10.4862 34.5565C10.1715 34.3275 10.0141 34.2129 9.88277 34.2346C9.77692 34.2521 9.6727 34.3385 9.63589 34.4392C9.59023 34.5643 9.66724 34.7267 9.82124 35.0517C10.1728 35.7935 10.6794 36.6751 11.3968 37.9237Z" fill="#1C2129"/>
<path d="M9.34864 29.866C9.30111 29.8256 9.28013 29.7619 9.29516 29.7013C9.57267 28.5834 10.185 27.5227 11.4098 25.4014C11.4474 25.3364 11.5346 25.3212 11.592 25.3696C16.267 29.3085 21.6024 32.3888 27.3512 34.4675C27.4222 34.4932 27.4529 34.5767 27.4151 34.6421C26.1904 36.7634 25.578 37.8241 24.7486 38.6234C24.705 38.6654 24.6414 38.6787 24.5844 38.6583C19.0152 36.6745 13.8527 33.6953 9.34864 29.866Z" fill="#1C2129"/>
<path d="M13.2138 22.2851C13.1379 22.4097 13.1 22.4721 13.0916 22.5399C13.0844 22.5985 13.0945 22.6616 13.1197 22.7149C13.1489 22.7767 13.2057 22.8251 13.3191 22.9217C17.8366 26.7687 23.0178 29.7598 28.6083 31.7481C28.7487 31.798 28.819 31.823 28.8871 31.8174C28.9459 31.8126 29.0056 31.7898 29.0527 31.7542C29.1073 31.713 29.1423 31.649 29.2123 31.521C29.3633 31.2447 29.4557 31.0445 29.5123 30.8354C29.5912 30.5444 29.6191 30.242 29.5948 29.9416C29.5674 29.6025 29.4495 29.2686 29.2137 28.6009L27.4236 23.5325C26.849 21.9057 26.5617 21.0923 26.0321 20.5397C25.5653 20.0527 24.9695 19.7087 24.3143 19.548C23.571 19.3656 22.7229 19.5235 21.0267 19.8393L15.7423 20.8232C15.0461 20.9528 14.6981 21.0176 14.3907 21.1635C14.1184 21.2927 13.8704 21.4681 13.6579 21.6818C13.505 21.8356 13.3777 22.0158 13.2138 22.2851Z" fill="#1C2129"/>
<path d="M36.0331 10.8425C34.7041 13.1444 31.7607 13.9331 29.4588 12.6041C27.1569 11.2751 26.3682 8.33163 27.6972 6.02973C29.0262 3.72783 31.9697 2.93915 34.2716 4.26815C36.5735 5.59715 37.3621 8.54058 36.0331 10.8425Z" fill="#1C2129"/>
<path d="M29.5526 19.0397L34.2223 33.4215C35.9474 38.7347 42.6762 40.3508 46.6262 36.4008C50.104 32.923 49.3365 27.0929 45.0773 24.6336L31.9825 17.0725C30.6538 16.3053 29.0788 17.5804 29.5526 19.0397Z" fill="#1C2129"/>
<path d="M23.8339 15.7373L9.04401 18.8843C3.58013 20.0468 -1.1839 15.0276 0.261912 9.63177C1.53487 4.88103 6.9676 2.63059 11.2271 5.08957L24.3225 12.6495C25.6513 13.4165 25.3345 15.418 23.8339 15.7373Z" fill="#1C2129"/>
</g>
</g>
<g id="Vector_3">
<path d="M151.605 24.8373C152.097 26.6159 153.43 27.5052 155.606 27.5052C157.007 27.5052 158.066 27.0322 158.785 26.0861L161.737 27.789C160.337 29.8136 158.274 30.8259 155.55 30.8259C153.203 30.8259 151.321 30.1164 149.902 28.6973C148.483 27.2782 147.773 25.4901 147.773 23.333C147.773 21.1949 148.473 19.4163 149.873 17.9972C151.273 16.5592 153.071 15.8402 155.266 15.8402C157.347 15.8402 159.06 16.5592 160.403 17.9972C161.765 19.4352 162.447 21.2138 162.447 23.333C162.447 23.8061 162.399 24.3075 162.305 24.8373H151.605ZM151.548 21.9991H158.785C158.577 21.0341 158.142 20.3151 157.48 19.842C156.836 19.369 156.098 19.1325 155.266 19.1325C154.282 19.1325 153.468 19.3879 152.825 19.8988C152.182 20.3908 151.756 21.0908 151.548 21.9991Z" fill="#1C2129"/>
<path d="M141.615 16.2375H145.191V29.7474C145.191 31.9423 144.462 33.6168 143.005 34.771C141.567 35.9252 139.827 36.5023 137.783 36.5023C136.25 36.5023 134.898 36.2091 133.724 35.6225C132.57 35.0359 131.681 34.175 131.057 33.0397L134.179 31.2516C134.898 32.5761 136.137 33.2384 137.897 33.2384C139.051 33.2384 139.959 32.9357 140.621 32.3302C141.284 31.7247 141.615 30.8638 141.615 29.7474V28.2148C140.536 29.6528 139.022 30.3718 137.074 30.3718C135.068 30.3718 133.384 29.6717 132.022 28.2715C130.678 26.8524 130.006 25.1306 130.006 23.106C130.006 21.1003 130.688 19.3879 132.05 17.9688C133.412 16.5497 135.087 15.8402 137.074 15.8402C139.022 15.8402 140.536 16.5592 141.615 17.9972V16.2375ZM134.775 25.9158C135.531 26.6348 136.487 26.9943 137.641 26.9943C138.795 26.9943 139.741 26.6348 140.479 25.9158C141.236 25.1779 141.615 24.2413 141.615 23.106C141.615 21.9896 141.236 21.0719 140.479 20.3529C139.741 19.615 138.795 19.246 137.641 19.246C136.487 19.246 135.531 19.615 134.775 20.3529C134.037 21.0719 133.668 21.9896 133.668 23.106C133.668 24.2413 134.037 25.1779 134.775 25.9158Z" fill="#1C2129"/>
<path d="M122.254 15.8402C123.805 15.8402 125.083 16.3605 126.085 17.4012C127.107 18.4419 127.618 19.8799 127.618 21.7153V30.4286H123.957V22.1694C123.957 21.2233 123.701 20.5043 123.191 20.0123C122.68 19.5014 121.998 19.246 121.147 19.246C120.201 19.246 119.444 19.5393 118.876 20.1259C118.309 20.7124 118.025 21.5923 118.025 22.7654V30.4286H114.364V16.2375H118.025V17.8269C118.914 16.5024 120.324 15.8402 122.254 15.8402Z" fill="#1C2129"/>
<path d="M107.382 16.2375H111.044V30.4286H107.382V28.754C106.285 30.1353 104.743 30.8259 102.756 30.8259C100.864 30.8259 99.2367 30.1069 97.8743 28.6689C96.5309 27.2119 95.8592 25.4333 95.8592 23.333C95.8592 21.2328 96.5309 19.4636 97.8743 18.0256C99.2367 16.5686 100.864 15.8402 102.756 15.8402C104.743 15.8402 106.285 16.5308 107.382 17.9121V16.2375ZM100.627 26.228C101.365 26.9659 102.302 27.3349 103.437 27.3349C104.572 27.3349 105.509 26.9659 106.247 26.228C107.004 25.4712 107.382 24.5062 107.382 23.333C107.382 22.1599 107.004 21.2044 106.247 20.4664C105.509 19.7096 104.572 19.3312 103.437 19.3312C102.302 19.3312 101.365 19.7096 100.627 20.4664C99.8894 21.2044 99.5205 22.1599 99.5205 23.333C99.5205 24.5062 99.8894 25.4712 100.627 26.228Z" fill="#1C2129"/>
<path d="M90.6684 18.6784C91.0089 17.7701 91.5671 17.089 92.3429 16.6349C93.1376 16.1807 94.0174 15.9537 94.9824 15.9537V20.0407C93.8661 19.9083 92.8632 20.1353 91.9739 20.7219C91.1035 21.3084 90.6684 22.2829 90.6684 23.6452V30.4286H87.0071V16.2375H90.6684V18.6784Z" fill="#1C2129"/>
<path d="M84.2039 19.7569H80.9967V25.6604C80.9967 26.1523 81.1197 26.5118 81.3657 26.7389C81.6116 26.9659 81.9712 27.0984 82.4442 27.1362C82.9172 27.1552 83.5038 27.1457 84.2039 27.1079V30.4286C81.6873 30.7124 79.9087 30.4759 78.868 29.719C77.8463 28.9622 77.3354 27.6093 77.3354 25.6604V19.7569H74.8662V16.2375H77.3354V13.3709L80.9967 12.264V16.2375H84.2039V19.7569Z" fill="#1C2129"/>
<path d="M66.909 30.8259C64.9411 30.8259 63.2855 30.3907 61.9421 29.5203C60.5987 28.631 59.6526 27.4295 59.1039 25.9158L62.453 23.9574C63.2288 25.982 64.7519 26.9943 67.0225 26.9943C68.1199 26.9943 68.9241 26.7957 69.435 26.3983C69.9459 26.001 70.2013 25.4995 70.2013 24.8941C70.2013 24.194 69.8891 23.6547 69.2647 23.2763C68.6403 22.8789 67.5239 22.4532 65.9156 21.9991C65.0263 21.7342 64.2694 21.4693 63.645 21.2044C63.0395 20.9395 62.4246 20.5894 61.8002 20.1542C61.1947 19.7001 60.7311 19.1325 60.4095 18.4513C60.0878 17.7701 59.927 16.9754 59.927 16.0672C59.927 14.2697 60.5608 12.8411 61.8286 11.7815C63.1152 10.703 64.6573 10.1637 66.4549 10.1637C68.0632 10.1637 69.4728 10.5611 70.6838 11.3558C71.9137 12.1316 72.8692 13.2195 73.5504 14.6197L70.2581 16.5213C69.4634 14.8184 68.1956 13.9669 66.4549 13.9669C65.6412 13.9669 64.9979 14.1562 64.5249 14.5346C64.0708 14.8941 63.8437 15.3671 63.8437 15.9537C63.8437 16.5781 64.0991 17.089 64.61 17.4863C65.1398 17.8647 66.1426 18.281 67.6185 18.7351C68.224 18.9243 68.6781 19.0757 68.9809 19.1892C69.3025 19.2839 69.7283 19.4447 70.2581 19.6717C70.8068 19.8799 71.2231 20.0786 71.5069 20.2678C71.8096 20.457 72.1502 20.7124 72.5286 21.0341C72.9071 21.3558 73.1909 21.6869 73.3801 22.0275C73.5882 22.368 73.7585 22.7843 73.891 23.2763C74.0423 23.7493 74.118 24.2696 74.118 24.8373C74.118 26.6727 73.4463 28.1296 72.1029 29.2081C70.7784 30.2867 69.0471 30.8259 66.909 30.8259Z" fill="#1C2129"/>
<path d="M202.157 24.4383C202.649 26.2169 203.983 27.1062 206.159 27.1062C207.559 27.1062 208.619 26.6332 209.338 25.6871L212.29 27.3901C210.889 29.4146 208.827 30.4269 206.102 30.4269C203.756 30.4269 201.873 29.7174 200.454 28.2983C199.035 26.8792 198.326 25.0911 198.326 22.9341C198.326 20.7959 199.026 19.0173 200.426 17.5982C201.826 16.1602 203.624 15.4412 205.818 15.4412C207.9 15.4412 209.612 16.1602 210.956 17.5982C212.318 19.0363 212.999 20.8149 212.999 22.9341C212.999 23.4071 212.952 23.9085 212.857 24.4383H202.157ZM202.1 21.6001H209.338C209.13 20.6351 208.695 19.9161 208.032 19.4431C207.389 18.97 206.651 18.7335 205.818 18.7335C204.835 18.7335 204.021 18.9889 203.378 19.4998C202.734 19.9918 202.309 20.6919 202.1 21.6001Z" fill="#1C2129"/>
<path d="M185.776 24.4383C186.268 26.2169 187.602 27.1062 189.778 27.1062C191.179 27.1062 192.238 26.6332 192.957 25.6871L195.909 27.3901C194.509 29.4146 192.446 30.4269 189.722 30.4269C187.375 30.4269 185.493 29.7174 184.074 28.2983C182.654 26.8792 181.945 25.0911 181.945 22.9341C181.945 20.7959 182.645 19.0173 184.045 17.5982C185.445 16.1602 187.243 15.4412 189.438 15.4412C191.519 15.4412 193.232 16.1602 194.575 17.5982C195.937 19.0363 196.618 20.8149 196.618 22.9341C196.618 23.4071 196.571 23.9085 196.477 24.4383H185.776ZM185.72 21.6001H192.957C192.749 20.6351 192.314 19.9161 191.652 19.4431C191.008 18.97 190.27 18.7335 189.438 18.7335C188.454 18.7335 187.64 18.9889 186.997 19.4998C186.354 19.9918 185.928 20.6919 185.72 21.6001Z" fill="#1C2129"/>
<path d="M177.453 19.7269C179.193 20.7297 180.064 22.2434 180.064 24.268C180.064 25.952 179.468 27.3333 178.276 28.4118C177.084 29.4903 175.617 30.0296 173.876 30.0296H165.447V10.1621H173.28C174.983 10.1621 176.412 10.6919 177.566 11.7515C178.739 12.7922 179.326 14.1261 179.326 15.7534C179.326 17.3996 178.701 18.7241 177.453 19.7269ZM173.28 13.8234H169.364V18.1943H173.28C173.886 18.1943 174.387 17.9861 174.785 17.5698C175.201 17.1536 175.409 16.6332 175.409 16.0088C175.409 15.3844 175.21 14.8641 174.813 14.4478C174.416 14.0315 173.905 13.8234 173.28 13.8234ZM173.876 26.3683C174.539 26.3683 175.087 26.1507 175.523 25.7155C175.958 25.2614 176.175 24.6938 176.175 24.0126C176.175 23.3503 175.958 22.8016 175.523 22.3664C175.087 21.9123 174.539 21.6853 173.876 21.6853H169.364V26.3683H173.876Z" fill="#1C2129"/>
</g>
</g>
</svg>
