<?xml version="1.0" encoding="UTF-8"?>
<svg id="Layer_1" data-name="Layer 1" xmlns="http://www.w3.org/2000/svg" viewBox="0 0 1280 237.74">
  <defs>
    <style>
      .cls-1 {
        fill: #171119;
      }

      .cls-2 {
        fill: #3bcc97;
      }
    </style>
  </defs>
  <g>
    <path class="cls-2" d="M82.74,56.52c1.86,1.87,4.39,2.91,7.02,2.91h78.97c4.72-6.85,12.61-11.33,21.55-11.33s16.84,4.48,21.55,11.33h105.53c2.22,0,3.33-2.68,1.77-4.25L266.83,2.89c-1.85-1.85-4.36-2.89-6.98-2.89H32.21c-2.22,0-3.32,2.68-1.76,4.25l52.28,52.27Z"/>
    <path class="cls-2" d="M408.3,144.36l-52.3-52.3c-1.86-1.86-4.38-2.9-7.01-2.9h-137.15c-4.72,6.84-12.61,11.33-21.56,11.33s-16.84-4.49-21.56-11.33H2.49c-2.22,0-3.32,2.68-1.76,4.25l52.28,52.28c1.86,1.86,4.38,2.9,7.01,2.9h137.14c4.71-6.84,12.61-11.32,21.55-11.32s16.83,4.48,21.55,11.32h166.28c2.21,0,3.31-2.66,1.75-4.23Z"/>
    <path class="cls-2" d="M326.28,181.2c-1.86-1.85-4.38-2.89-7-2.89h-78.99c-4.72,6.85-12.62,11.34-21.57,11.34s-16.85-4.49-21.57-11.34h-105.53c-2.2,0-3.3,2.66-1.75,4.22l52.3,52.31c1.86,1.86,4.38,2.9,7.01,2.9h227.69c2.2,0,3.29-2.65,1.74-4.21l-52.32-52.33Z"/>
  </g>
  <g>
    <path class="cls-1" d="M450.18,198.65v-45.78h23.78c10.39,0,16.81,4.92,16.81,13.46,0,7.58-4.99,12.23-13.6,12.71v.48c3.55.96,5.19,3.01,6.83,5.88l7.65,13.26h-8.47l-7.31-12.64c-2.05-3.62-4.17-5.13-9.91-5.13h-8.4v17.77h-7.38ZM457.56,175.21h16.33c6.15,0,9.23-2.12,9.23-7.86s-3.08-7.86-9.23-7.86h-16.33v15.72Z"/>
    <path class="cls-1" d="M496.78,198.65v-45.78h36.63v6.63h-29.25v12.85h28.22v6.56h-28.22v13.12h29.25v6.63h-36.63Z"/>
    <path class="cls-1" d="M538.39,183.68v-.41h7.38v1.09c0,5.47,3.21,8.2,13.26,8.2,8.75,0,11.82-1.91,11.82-6.22,0-3.96-2.32-5.47-8.13-6.56l-11.21-1.85c-7.72-1.37-13.19-4.92-13.19-12.44,0-6.63,5.47-13.32,19.68-13.32,13.39,0,19.47,6.7,19.47,15.65v.41h-7.31v-.89c0-5.6-3.35-8.4-12.85-8.4-8.34,0-11.62,2.05-11.62,6.15s2.32,5.26,7.72,6.42l11.14,1.91c9.16,1.64,13.67,5.81,13.67,12.5s-5.67,13.39-19.2,13.39-20.64-6.01-20.64-15.65Z"/>
    <path class="cls-1" d="M584.18,198.65v-45.78h36.63v6.63h-29.25v12.85h28.22v6.56h-28.22v13.12h29.25v6.63h-36.63Z"/>
    <path class="cls-1" d="M623.81,198.65l20.43-45.78h10.39l20.43,45.78h-8.34l-5.26-11.89h-24.19l-5.26,11.89h-8.2ZM640.21,180.13h18.31l-6.22-13.94-2.67-6.49h-.55l-2.66,6.49-6.22,13.94Z"/>
    <path class="cls-1" d="M679.16,198.65v-45.78h23.78c10.39,0,16.81,4.92,16.81,13.46,0,7.58-4.99,12.23-13.6,12.71v.48c3.55.96,5.19,3.01,6.83,5.88l7.65,13.26h-8.47l-7.31-12.64c-2.05-3.62-4.17-5.13-9.91-5.13h-8.4v17.77h-7.38ZM686.54,175.21h16.33c6.15,0,9.22-2.12,9.22-7.86s-3.07-7.86-9.22-7.86h-16.33v15.72Z"/>
    <path class="cls-1" d="M724.4,175.76c0-14.28,9.43-23.57,23.64-23.57,12.91,0,21.93,6.83,21.93,17.77v.96h-8.13v-.96c0-6.97-4.44-10.73-13.73-10.73-10.73,0-15.92,5.12-15.92,16.54s5.19,16.47,15.92,16.47c9.29,0,13.73-3.69,13.73-10.73v-.89h8.13v.89c0,11-8.95,17.83-21.93,17.83-14.21,0-23.64-9.29-23.64-23.57Z"/>
    <path class="cls-1" d="M776.13,198.65v-45.78h7.38v19.41h26.92v-19.41h7.31v45.78h-7.31v-19.75h-26.92v19.75h-7.38Z"/>
  </g>
  <path class="cls-1" d="M527.28,69.94c0,1.89-.22,3.68-.78,5.12,2.23,2.79,3.9,6.69,3.9,10.47v16.6c0,9.14-7.47,16.49-16.6,16.49h-63.62V38.41h60.61c9.03,0,16.49,7.35,16.49,16.49v15.04ZM467.45,69.16h42.34v-13.37h-42.34v13.37ZM467.45,101.25h45.46v-14.71h-45.46v14.71Z"/>
  <path class="cls-1" d="M622.65,75.73c0,9.03-7.47,16.49-16.6,16.49h-.78c5.68,6.69,11.81,13.82,17.38,20.5v5.9h-17.83l-22.17-26.41-22.95.11c.22,0,.33.22.33.67,0,0-.22,0-.33-.11v25.74h-17.27V38.52h63.62c9.14,0,16.6,7.47,16.6,16.49v20.72ZM559.7,74.84h45.46v-19.05h-45.46v19.05Z"/>
  <path class="cls-1" d="M708.77,55.79h-56.6v14.04h45.57v17.38h-45.57v14.04h56.6v17.38h-74.09V38.41h74.09v17.38Z"/>
  <path class="cls-1" d="M783.64,38.41c9.14,0,16.6,7.35,16.6,16.49v63.73h-17.49v-25.85h-45.46v25.85h-17.27v-63.73c0-9.14,7.35-16.49,16.49-16.49h47.13ZM782.75,75.4v-19.61h-45.46v19.61h45.46Z"/>
  <path class="cls-1" d="M888.26,38.41v6.02l-28.63,34.09c9.36,11.25,19.28,22.95,28.63,34.09v6.02h-18.05l-26.29-31.42h-15.71v31.42h-17.38V38.41h17.38v31.42h15.71c3.34-3.9,6.69-7.91,10.03-11.92l16.27-19.5h18.05Z"/>
  <path class="cls-1" d="M963.14,38.52c9.14,0,16.6,7.47,16.6,16.49v20.72c0,9.03-7.46,16.49-16.6,16.49l-46.35.11c.22,0,.33.22.33.67,0,0-.22,0-.33-.11v25.74h-17.27V38.52h63.62ZM916.79,74.84h45.46v-19.05h-45.46v19.05Z"/>
  <path class="cls-1" d="M1053.38,38.41c9.03,0,16.49,7.35,16.49,16.49v47.24c0,9.14-7.47,16.49-16.49,16.49h-47.24c-9.14,0-16.49-7.35-16.49-16.49v-47.24c0-9.14,7.35-16.49,16.49-16.49h47.24ZM1006.92,101.25h45.46v-45.46h-45.46v45.46Z"/>
  <path class="cls-1" d="M1080.01,38.41h17.38v80.22h-17.38V38.41Z"/>
  <path class="cls-1" d="M1171.59,38.41h17.49v80.22h-17.83l-45.13-53.7v53.7h-17.27V38.41h17.83l44.9,53.48v-53.48Z"/>
  <path class="cls-1" d="M1280,38.41v17.38h-31.42v62.84h-17.38v-62.84h-31.42v-17.38h80.22Z"/>
</svg>