<svg width="268" height="78" viewBox="0 0 268 78" fill="none" xmlns="http://www.w3.org/2000/svg">
<rect x="38.6936" y="3.88592" width="49.1004" height="49.1004" transform="rotate(45 38.6936 3.88592)" stroke="white" stroke-width="5.49552"/>
<rect x="16.1943" y="27.1908" width="16.3792" height="16.3792" transform="rotate(45 16.1943 27.1908)" stroke="#1573FF" stroke-width="6.41144"/>
<path d="M91.2988 16.6602C93.7243 16.6602 96.1303 16.6505 98.517 16.6311C100.923 16.6117 103.125 16.5923 105.124 16.5729C107.122 16.5341 108.83 16.4856 110.246 16.4273C111.663 16.3691 112.623 16.2915 113.128 16.1945L111.702 20.0655C111.061 19.8909 110.314 19.7357 109.461 19.5998C108.723 19.4834 107.821 19.3767 106.754 19.2797C105.706 19.1633 104.493 19.105 103.116 19.105C102.65 19.105 102.087 19.1244 101.427 19.1633C100.787 19.1827 100.166 19.2118 99.5647 19.2506C98.8662 19.2894 98.158 19.3282 97.4401 19.367V35.2585C99.4386 35.2391 101.243 35.1809 102.854 35.0839C104.464 34.9869 105.832 34.8898 106.958 34.7928C108.277 34.6764 109.441 34.5406 110.45 34.3853L109.548 38.6056C108.209 38.431 106.841 38.2661 105.444 38.1108C104.241 37.975 102.931 37.8586 101.515 37.7616C100.098 37.6451 98.7401 37.5869 97.4401 37.5869V55.836C99.7297 55.836 101.835 55.739 103.756 55.5449C105.677 55.3509 107.355 55.1278 108.791 54.8755C110.46 54.6039 111.983 54.2837 113.361 53.915L112.517 58.6301C112.284 58.6107 111.935 58.5913 111.469 58.5719C111.003 58.5525 110.479 58.5331 109.897 58.5137C109.334 58.4943 108.733 58.4749 108.093 58.4555C107.472 58.4555 106.88 58.4458 106.317 58.4264C105.754 58.4264 105.25 58.4167 104.804 58.3973C104.377 58.3973 104.066 58.3973 103.872 58.3973H91.2988V58.2808C91.4152 57.8734 91.522 57.3689 91.619 56.7674C91.7354 56.1658 91.8324 55.4188 91.91 54.5262C91.9877 53.6337 92.0459 52.5762 92.0847 51.3538C92.1235 50.1119 92.1429 48.6664 92.1429 47.0171V28.0695C92.1429 26.4202 92.1235 24.9843 92.0847 23.7619C92.0459 22.5201 91.9877 21.4529 91.91 20.5603C91.8324 19.6483 91.7354 18.8916 91.619 18.2901C91.522 17.6886 91.4152 17.1841 91.2988 16.7766V16.6602Z" fill="white"/>
<path d="M120.841 39.3915C120.841 37.7422 120.812 36.3063 120.753 35.0839C120.715 33.842 120.656 32.7749 120.579 31.8823C120.521 30.9897 120.433 30.2427 120.317 29.6412C120.22 29.0397 120.113 28.5352 119.997 28.1277V28.0113H126.72V28.1277C126.623 28.4188 126.536 28.7486 126.458 29.1173C126.38 29.4859 126.313 29.9031 126.254 30.3688C127.399 29.7091 128.66 29.1561 130.038 28.7098C131.435 28.2441 132.978 28.0113 134.666 28.0113C136.82 28.0113 138.779 28.3799 140.545 29.1173C142.33 29.8352 143.853 30.8733 145.115 32.2316C146.395 33.5898 147.385 35.2294 148.083 37.1504C148.782 39.0713 149.131 41.2251 149.131 43.6117C149.131 45.6103 148.782 47.5313 148.083 49.3746C147.404 51.2179 146.395 52.8478 145.056 54.2643C143.737 55.6808 142.107 56.8159 140.167 57.6696C138.226 58.504 135.995 58.9212 133.472 58.9212C131.959 58.9212 130.581 58.8047 129.34 58.5719C128.098 58.339 126.953 58.0383 125.905 57.6696V61.919C125.905 63.5683 125.924 65.0042 125.963 66.2266C126.002 67.4684 126.06 68.5356 126.138 69.4282C126.216 70.3207 126.303 71.0678 126.4 71.6693C126.497 72.2708 126.604 72.7753 126.72 73.1828V73.2992H119.997V73.1828C120.113 72.7753 120.22 72.2708 120.317 71.6693C120.433 71.0678 120.521 70.3207 120.579 69.4282C120.656 68.5356 120.715 67.4684 120.753 66.2266C120.812 65.0042 120.841 63.5683 120.841 61.919V39.3915ZM133.647 30.1942C132.987 30.1942 132.308 30.2815 131.61 30.4561C130.931 30.6114 130.251 30.8442 129.572 31.1547C128.913 31.4457 128.272 31.8241 127.651 32.2898C127.05 32.736 126.507 33.2502 126.021 33.8323C125.983 34.5697 125.954 35.404 125.934 36.3354C125.915 37.2668 125.905 38.2855 125.905 39.3915V54.6427C126.293 54.9337 126.73 55.2054 127.215 55.4576C127.7 55.7099 128.243 55.9427 128.845 56.1561C129.466 56.3502 130.154 56.5054 130.911 56.6218C131.687 56.7383 132.541 56.7965 133.472 56.7965C134.986 56.7965 136.354 56.5248 137.576 55.9815C138.799 55.4382 139.827 54.6524 140.661 53.624C141.515 52.5956 142.165 51.3441 142.612 49.8694C143.077 48.3947 143.31 46.726 143.31 44.8633C143.31 42.7677 143.135 40.8273 142.786 39.0422C142.437 37.2377 141.874 35.6854 141.098 34.3853C140.341 33.0659 139.352 32.0375 138.129 31.3002C136.907 30.5628 135.413 30.1942 133.647 30.1942Z" fill="white"/>
<path d="M168.806 34.4436L168.399 34.5018C168.263 34.0555 168.04 33.5801 167.729 33.0756C167.438 32.5711 167.05 32.1054 166.565 31.6785C166.1 31.2517 165.527 30.9024 164.848 30.6308C164.188 30.3397 163.422 30.1942 162.549 30.1942C161.947 30.1942 161.375 30.2815 160.831 30.4561C160.308 30.6308 159.842 30.8927 159.434 31.242C159.046 31.5718 158.736 31.989 158.503 32.4935C158.27 32.998 158.154 33.5898 158.154 34.2689C158.154 35.2197 158.445 36.1317 159.027 37.0048C159.628 37.8586 160.376 38.7123 161.268 39.5661C162.161 40.4004 163.121 41.2445 164.149 42.0983C165.197 42.952 166.167 43.8446 167.06 44.776C167.953 45.7073 168.69 46.7066 169.272 47.7738C169.874 48.8216 170.174 49.9567 170.174 51.1791C170.174 52.1687 170 53.1389 169.65 54.0897C169.301 55.021 168.758 55.8554 168.021 56.5927C167.303 57.3301 166.371 57.9316 165.226 58.3973C164.101 58.8435 162.752 59.0667 161.181 59.0667C160.249 59.0667 159.376 58.9794 158.561 58.8047C157.766 58.6301 157.028 58.4167 156.349 58.1644C155.69 57.8928 155.088 57.6017 154.545 57.2913C154.021 56.9614 153.555 56.6509 153.148 56.3599L153.439 50.8299H153.904C154.098 51.7418 154.39 52.5762 154.778 53.3329C155.166 54.0897 155.641 54.7397 156.204 55.283C156.786 55.8069 157.446 56.2241 158.183 56.5345C158.92 56.8256 159.725 56.9711 160.599 56.9711C162.035 56.9711 163.17 56.5733 164.004 55.7778C164.858 54.9822 165.285 53.9441 165.285 52.6635C165.285 51.6351 164.994 50.694 164.411 49.8403C163.849 48.9671 163.131 48.1328 162.258 47.3372C161.384 46.5417 160.443 45.7461 159.434 44.9506C158.445 44.155 157.513 43.311 156.64 42.4184C155.767 41.5065 155.04 40.5169 154.457 39.4497C153.895 38.3631 153.613 37.131 153.613 35.7533C153.613 34.6279 153.817 33.5995 154.225 32.6681C154.651 31.7174 155.234 30.9121 155.971 30.2524C156.728 29.5733 157.62 29.0494 158.649 28.6807C159.677 28.312 160.802 28.1277 162.025 28.1277C163.635 28.1277 164.974 28.3023 166.041 28.6516C167.128 28.9815 167.953 29.3016 168.515 29.6121L168.806 34.4436Z" fill="white"/>
<path d="M176.956 39.9736C176.956 38.3243 176.927 36.8884 176.869 35.666C176.83 34.4242 176.772 33.357 176.694 32.4644C176.636 31.5718 176.548 30.8248 176.432 30.2233C176.335 29.6218 176.228 29.1173 176.112 28.7098V28.5934H182.835V28.7098C182.719 29.1173 182.612 29.6218 182.515 30.2233C182.418 30.8248 182.331 31.5718 182.253 32.4644C182.175 33.357 182.117 34.4242 182.078 35.666C182.04 36.8884 182.02 38.3243 182.02 39.9736V47.0171C182.02 48.6664 182.04 50.1119 182.078 51.3538C182.117 52.5762 182.175 53.6337 182.253 54.5262C182.331 55.4188 182.418 56.1658 182.515 56.7674C182.612 57.3689 182.719 57.8734 182.835 58.2808V58.3973H176.112V58.2808C176.228 57.8734 176.335 57.3689 176.432 56.7674C176.548 56.1658 176.636 55.4188 176.694 54.5262C176.772 53.6337 176.83 52.5762 176.869 51.3538C176.927 50.1119 176.956 48.6664 176.956 47.0171V39.9736ZM176.345 19.7745C176.345 19.3476 176.422 18.9498 176.577 18.5811C176.752 18.1931 176.975 17.8632 177.247 17.5916C177.519 17.3005 177.839 17.0774 178.207 16.9221C178.595 16.7475 179.013 16.6602 179.459 16.6602C179.905 16.6602 180.313 16.7475 180.681 16.9221C181.069 17.0774 181.399 17.3005 181.671 17.5916C181.962 17.8632 182.185 18.1931 182.34 18.5811C182.515 18.9498 182.602 19.3476 182.602 19.7745C182.602 20.667 182.302 21.4141 181.7 22.0156C181.099 22.6171 180.351 22.9178 179.459 22.9178C179.013 22.9178 178.595 22.8402 178.207 22.685C177.839 22.5104 177.519 22.2872 177.247 22.0156C176.975 21.7245 176.752 21.3947 176.577 21.026C176.422 20.6379 176.345 20.2207 176.345 19.7745Z" fill="white"/>
<path d="M191.334 26.265C191.334 24.6157 191.305 23.1798 191.247 21.9574C191.208 20.7155 191.15 19.6483 191.072 18.7558C191.014 17.8632 190.926 17.1162 190.81 16.5147C190.713 15.9132 190.606 15.4087 190.49 15.0012V14.8848H197.213V15.0012C197.097 15.4087 196.99 15.9132 196.893 16.5147C196.796 17.1162 196.709 17.8632 196.631 18.7558C196.553 19.6483 196.495 20.7155 196.456 21.9574C196.418 23.1798 196.398 24.6157 196.398 26.265V47.0171C196.398 48.6664 196.418 50.1119 196.456 51.3538C196.495 52.5762 196.553 53.6337 196.631 54.5262C196.709 55.4188 196.796 56.1658 196.893 56.7674C196.99 57.3689 197.097 57.8734 197.213 58.2808V58.3973H190.49V58.2808C190.606 57.8734 190.713 57.3689 190.81 56.7674C190.926 56.1658 191.014 55.4188 191.072 54.5262C191.15 53.6337 191.208 52.5762 191.247 51.3538C191.305 50.1119 191.334 48.6664 191.334 47.0171V26.265Z" fill="white"/>
<path d="M203.092 43.4371C203.092 41.2445 203.5 39.2168 204.315 37.3541C205.13 35.4719 206.246 33.842 207.662 32.4644C209.098 31.0867 210.786 30.0098 212.726 29.2337C214.667 28.4576 216.753 28.0695 218.984 28.0695C221.177 28.0695 223.233 28.4382 225.154 29.1755C227.095 29.8934 228.783 30.9218 230.219 32.2607C231.654 33.5995 232.78 35.2294 233.595 37.1504C234.429 39.0713 234.846 41.2251 234.846 43.6117C234.846 45.6103 234.497 47.5313 233.799 49.3746C233.1 51.2179 232.072 52.8478 230.713 54.2643C229.355 55.6808 227.686 56.8159 225.707 57.6696C223.748 58.504 221.487 58.9212 218.926 58.9212C216.753 58.9212 214.705 58.5622 212.785 57.8443C210.864 57.1263 209.185 56.0979 207.749 54.7591C206.313 53.4202 205.178 51.8 204.344 49.8985C203.51 47.9775 203.092 45.8237 203.092 43.4371ZM219.595 56.7965C220.973 56.7965 222.234 56.5248 223.379 55.9815C224.543 55.4382 225.542 54.6524 226.377 53.624C227.211 52.5956 227.861 51.3441 228.327 49.8694C228.792 48.3947 229.025 46.726 229.025 44.8633C229.025 42.7677 228.802 40.8273 228.356 39.0422C227.91 37.2377 227.24 35.6854 226.348 34.3853C225.474 33.0659 224.368 32.0375 223.03 31.3002C221.691 30.5628 220.129 30.1942 218.344 30.1942C216.966 30.1942 215.705 30.4658 214.56 31.0091C213.415 31.533 212.416 32.2995 211.562 33.3084C210.728 34.3174 210.078 35.5593 209.612 37.0339C209.146 38.4892 208.914 40.1482 208.914 42.0109C208.914 44.1065 209.137 46.0566 209.583 47.8611C210.049 49.6656 210.728 51.2373 211.62 52.5762C212.513 53.8956 213.619 54.9337 214.938 55.6905C216.277 56.4278 217.829 56.7965 219.595 56.7965Z" fill="white"/>
<path d="M261.42 38.7803C261.42 36.219 260.905 34.3368 259.877 33.1338C258.849 31.9308 257.471 31.3293 255.744 31.3293C255.123 31.3293 254.425 31.4651 253.648 31.7368C252.872 31.989 252.077 32.3383 251.262 32.7846C250.447 33.2114 249.632 33.7159 248.817 34.298C248.002 34.8801 247.236 35.5011 246.518 36.1608L246.459 39.9736V47.0171C246.459 48.6664 246.479 50.1119 246.518 51.3538C246.556 52.5762 246.615 53.6337 246.692 54.5262C246.77 55.4188 246.857 56.1658 246.954 56.7674C247.051 57.3689 247.158 57.8734 247.274 58.2808V58.3973H240.551V58.2808C240.667 57.8734 240.774 57.3689 240.871 56.7674C240.988 56.1658 241.075 55.4188 241.133 54.5262C241.211 53.6337 241.269 52.5762 241.308 51.3538C241.366 50.1119 241.395 48.6664 241.395 47.0171V39.9736C241.395 38.3243 241.366 36.8884 241.308 35.666C241.269 34.4242 241.211 33.357 241.133 32.4644C241.075 31.5718 240.988 30.8248 240.871 30.2233C240.774 29.6218 240.667 29.1173 240.551 28.7098V28.5934H247.274V28.7098C247.119 29.1949 246.993 29.8158 246.896 30.5725C246.818 31.3099 246.731 32.2801 246.634 33.4831C247.43 32.8234 248.283 32.1636 249.195 31.5039C250.127 30.8442 251.087 30.2621 252.077 29.7576C253.066 29.2337 254.075 28.8165 255.104 28.5061C256.132 28.1762 257.141 28.0113 258.131 28.0113C259.644 28.0113 260.925 28.2732 261.973 28.7971C263.04 29.321 263.903 30.0098 264.563 30.8636C265.242 31.7174 265.727 32.6972 266.018 33.8032C266.329 34.8898 266.484 35.9958 266.484 37.1212V47.0171C266.484 48.6664 266.503 50.1119 266.542 51.3538C266.581 52.5762 266.639 53.6337 266.717 54.5262C266.794 55.4188 266.882 56.1658 266.979 56.7674C267.076 57.3689 267.182 57.8734 267.299 58.2808V58.3973H260.575V58.2808C260.692 57.8734 260.799 57.3689 260.896 56.7674C261.012 56.1658 261.099 55.4188 261.158 54.5262C261.235 53.6337 261.293 52.5762 261.332 51.3538C261.39 50.1119 261.42 48.6664 261.42 47.0171V38.7803Z" fill="white"/>
</svg>
