<svg width="259" height="51" viewBox="0 0 259 51" fill="none" xmlns="http://www.w3.org/2000/svg">
<g clip-path="url(#clip0_129_1337)">
<path d="M117.814 24.2651C117.783 23.9004 117.768 23.5356 117.761 23.1632C117.761 23.5356 117.783 23.9004 117.814 24.2651Z" fill="#10261D"/>
<path d="M104.943 0C103.262 0 101.905 0.531962 100.864 1.60349C99.8239 2.67501 99.3037 3.96692 99.3037 5.47921C99.3037 6.99151 99.8239 8.35181 100.864 9.42333C101.905 10.4949 103.262 11.0268 104.943 11.0268C106.625 11.0268 107.982 10.4949 109.022 9.42333C110.063 8.35181 110.583 7.0371 110.583 5.47921C110.583 3.92132 110.063 2.66741 109.022 1.60349C107.982 0.531962 106.625 0 104.943 0Z" fill="#10261D"/>
<path d="M106.18 14.5834H100.126C100.005 14.5834 99.9072 14.6822 99.9072 14.8038V40.2012C99.9072 42.3594 101.641 44.1149 103.79 44.1149H109.844C109.965 44.1149 110.063 44.0161 110.063 43.8945V18.4895C110.063 16.3313 108.329 14.5758 106.18 14.5758V14.5834Z" fill="#10261D"/>
<path d="M87.8589 0.638306H81.8046C81.684 0.638306 81.5859 0.737099 81.5859 0.85869V40.1935C81.5859 42.3518 83.32 44.1072 85.4688 44.1072H91.5231C91.6438 44.1072 91.7418 44.0084 91.7418 43.8869V4.55203C91.7418 2.39378 90.0077 0.638306 87.8589 0.638306Z" fill="#10261D"/>
<path d="M139.958 11.8779C139.829 11.8399 139.709 11.8019 139.581 11.7715C139.543 11.7639 139.513 11.7487 139.475 11.7411C139.407 11.7259 139.332 11.7107 139.264 11.6879C137.703 11.2928 135.962 11.0648 134.031 11.0268C133.82 11.0268 133.617 11.0116 133.398 11.0116C133.353 11.0116 133.308 11.0116 133.262 11.0116C133.262 11.0116 133.27 11.0116 133.277 11.0116C133.247 11.0116 133.217 11.0116 133.187 11.0116C133.157 11.0116 133.127 11.0116 133.097 11.0116C133.097 11.0116 133.104 11.0116 133.112 11.0116C133.066 11.0116 133.021 11.0116 132.976 11.0116C132.757 11.0116 132.554 11.0192 132.343 11.0268V11.042C130.782 11.0952 129.304 11.2472 127.909 11.5132C127.781 11.536 127.653 11.5664 127.525 11.5892C127.314 11.6348 127.11 11.6879 126.899 11.7411C121.584 13.1166 117.859 16.5288 117.776 22.6996C117.776 22.768 117.769 22.8288 117.769 22.9048C117.769 22.996 117.784 23.0795 117.784 23.1707C117.784 23.5431 117.806 23.9079 117.836 24.2727C117.806 23.9079 117.791 23.5431 117.784 23.1707L117.836 31.9329V40.2011C117.836 42.3594 119.571 44.1149 121.719 44.1149H127.774C127.894 44.1149 127.992 44.0161 127.992 43.8945V20.4121C127.992 20.4121 128.158 20.3285 128.234 20.2905C128.905 19.9562 129.621 19.675 130.39 19.4394C131.001 19.257 131.656 19.1354 132.358 19.0822C132.524 19.0746 132.697 19.0594 132.878 19.0518C132.991 19.0518 133.097 19.0442 133.21 19.0442C133.323 19.0442 133.428 19.0442 133.541 19.0518C133.715 19.0594 133.888 19.067 134.062 19.0822C135.268 19.1886 136.271 19.5382 137.047 20.169C137.937 20.8909 138.382 21.9928 138.427 23.4443V28.9691L138.412 37.4121V39.8972C138.412 39.8972 138.412 39.92 138.412 39.9276V40.1935C138.412 42.3518 140.146 44.1073 142.295 44.1073H148.417C148.538 44.1073 148.636 44.0085 148.636 43.8869V22.692C148.56 16.7112 145.062 13.3218 140.003 11.8703L139.958 11.8779Z" fill="#10261D"/>
<path d="M162.637 14.5834H156.582C156.462 14.5834 156.364 14.6822 156.364 14.8038V40.2012C156.364 42.3594 158.098 44.1149 160.247 44.1149H166.301C166.422 44.1149 166.52 44.0161 166.52 43.8945V18.4895C166.52 16.3313 164.785 14.5758 162.637 14.5758V14.5834Z" fill="#10261D"/>
<path d="M161.408 0C159.726 0 158.369 0.531962 157.329 1.60349C156.288 2.67501 155.768 3.96692 155.768 5.47921C155.768 6.99151 156.288 8.35181 157.329 9.42333C158.369 10.4949 159.726 11.0268 161.408 11.0268C163.089 11.0268 164.446 10.4949 165.487 9.42333C166.527 8.35181 167.047 7.0371 167.047 5.47921C167.047 3.92132 166.527 2.66741 165.487 1.60349C164.446 0.531962 163.089 0 161.408 0Z" fill="#10261D"/>
<path d="M255.019 13.8007C253.828 12.8431 252.44 12.1516 250.872 11.726C249.304 11.3004 248.248 11.0876 246.522 11.0876C244.222 11.0876 242.232 11.3916 240.55 11.992C238.869 12.5923 237.369 13.3447 236.042 14.2338C234.67 13.1623 233.154 12.372 231.495 11.8628C229.837 11.3536 228.819 11.0952 226.957 11.0952C224.612 11.0952 223.028 11.4068 220.88 12.03C218.731 12.6531 216.929 13.4815 215.474 14.5074C214.592 15.1306 213.905 15.7993 213.415 16.5137C212.925 17.228 212.684 18.1627 212.684 19.3255V35.4971C212.684 35.7859 212.699 36.0595 212.722 36.3179V40.2012C212.722 42.3594 214.456 44.1149 216.605 44.1149H222.621C222.742 44.1149 222.84 44.0161 222.84 43.8945V20.6174C222.84 20.5566 222.863 20.4958 222.908 20.4578C223.466 19.9106 224.242 19.4851 225.147 19.2723C225.532 19.1963 225.991 19.1431 226.564 19.1279C226.874 19.1203 227.168 19.1355 227.447 19.1735C227.499 19.1811 227.545 19.1887 227.597 19.2039C227.793 19.2419 227.989 19.2875 228.178 19.3407C228.276 19.3711 228.366 19.3939 228.457 19.4319C230.025 19.9714 231.111 21.1493 231.111 22.5248C231.111 22.616 231.141 23.1936 231.141 23.414V36.751C231.141 37.0398 231.156 37.3134 231.179 37.5718V40.2164C231.179 42.3746 232.913 44.1301 235.062 44.1301H240.324C240.445 44.1301 240.543 44.0313 240.543 43.9097V40.9763C240.543 40.9763 240.55 40.9763 240.558 40.9763L240.543 30.4359H240.528V21.0581V21.2405V20.6858C240.528 20.5946 240.558 20.511 240.626 20.4502C241.184 19.9182 241.953 19.5079 242.835 19.2951C243.219 19.2191 243.679 19.1659 244.252 19.1507C244.561 19.1431 244.856 19.1583 245.134 19.1963C245.187 19.2039 245.233 19.2115 245.285 19.2267C245.481 19.2647 245.677 19.3103 245.866 19.3635C245.964 19.3939 246.054 19.4167 246.145 19.4547C247.713 19.9942 248.799 21.1721 248.799 22.5476C248.799 22.6388 248.829 23.2164 248.829 23.4368V31.2566L248.844 40.2392C248.844 42.3974 250.578 44.1529 252.727 44.1529H258.781C258.902 44.1529 259 44.0541 259 43.9325V41.4399C259 41.4399 259.007 41.4399 259.015 41.4399V23.186C259.015 21.0049 258.653 19.1431 257.922 17.6004C257.19 16.0653 256.233 14.8114 255.034 13.8539L255.019 13.8007Z" fill="#10261D"/>
<path d="M201.971 15.4725C200.485 13.983 198.706 12.8279 196.633 12.0299C194.552 11.2244 192.252 10.8292 189.734 10.8292C187.216 10.8292 184.901 11.232 182.798 12.0299C180.694 12.8355 178.907 13.9678 177.422 15.4421C175.937 16.9164 174.791 18.7099 173.969 20.8225C173.147 22.9428 172.74 25.291 172.74 27.8748C172.74 30.4586 173.139 32.9437 173.931 35.0639C174.73 37.1842 175.869 38.9776 177.346 40.4443C178.824 41.9186 180.619 43.0434 182.722 43.8185C184.826 44.6012 187.155 44.9888 189.719 44.9888C192.282 44.9888 194.605 44.586 196.685 43.7881C198.766 42.9826 200.546 41.8502 202.024 40.3759C203.501 38.9016 204.647 37.1082 205.439 34.9955C206.238 32.8753 206.63 30.5042 206.63 27.8748C206.63 25.2454 206.223 22.9504 205.401 20.8529C204.579 18.7555 203.433 16.962 201.948 15.4725H201.971ZM195.064 34.6307C193.828 36.1886 192.056 36.9714 189.734 36.9714C187.412 36.9714 185.632 36.2038 184.403 34.6611C183.167 33.126 182.556 30.8614 182.556 27.8748C182.556 24.8882 183.182 22.7452 184.441 21.1873C185.7 19.6294 187.465 18.8467 189.742 18.8467C192.018 18.8467 193.783 19.637 195.042 21.2177C196.301 22.7984 196.927 25.0174 196.927 27.8748C196.927 30.7322 196.308 33.0653 195.08 34.6307H195.064Z" fill="#10261D"/>
<path d="M23.6216 0.577515H17.3109C17.1903 0.577515 17.0923 0.676308 17.0923 0.797899V47.0938C17.0923 49.2521 18.8264 51.0076 20.9752 51.0076H27.2858C27.4064 51.0076 27.4969 50.9088 27.4969 50.7948V4.49124C27.4969 2.33299 25.7628 0.577515 23.614 0.577515H23.6216Z" fill="#7EB479"/>
<path d="M40.7139 9.56775H34.4032C34.2826 9.56775 34.1846 9.66654 34.1846 9.78813V38.2405C34.1846 40.3988 35.9187 42.1543 38.0675 42.1543H44.3781C44.4987 42.1543 44.5967 42.0555 44.5967 41.9339V13.4815C44.5967 11.3232 42.8626 9.56775 40.7139 9.56775Z" fill="#7EB479"/>
<path d="M6.52928 9.56775H0.218648C0.0980147 9.56775 0 9.66654 0 9.78813V38.2405C0 40.3988 1.73411 42.1543 3.88289 42.1543H10.1935C10.3142 42.1543 10.4122 42.0555 10.4122 41.9339V13.4815C10.4122 11.3232 8.67807 9.56775 6.52928 9.56775Z" fill="#7EB479"/>
</g>
<defs>
<clipPath id="clip0_129_1337">
<rect width="259" height="51" fill="white"/>
</clipPath>
</defs>
</svg>
