<svg height="60" viewBox="0 0 260 60" width="260" xmlns="http://www.w3.org/2000/svg"><g fill="#47b7b7"><path d="m302.32 108.293-5.785 1.177a4.083 4.083 0 0 0 -4.178-3.357c-1.965 0-3.214 1.071-3.214 2.428 0 .965.427 1.678 1.927 2l4.965 1.108c4.142.928 6.571 3.179 6.571 6.963 0 5.108-4.536 7.75-9.857 7.75-5.392 0-9.82-2.572-10.462-7.249l6.071-1.179a4.374 4.374 0 0 0 4.713 3.535c2.215 0 3.537-1 3.537-2.464 0-1.071-.5-1.749-2.215-2.107l-5-1.071c-3.428-.786-6.428-2.571-6.428-6.927 0-4.643 3.857-7.536 9.464-7.536 5.213 0 8.998 2.572 9.891 6.929z" transform="translate(-215.315 -85.534)"/><path d="m368.838 126.364a9.732 9.732 0 0 1 -4.892 1.32c-4.465 0-7.142-2.428-7.142-7.143v-6.784h-3.251v-4.536h3.247v-6h5.713v6h5.287v4.536h-5.286v6.214c0 1.857.893 2.607 2.393 2.607a5.833 5.833 0 0 0 2.607-.715z" transform="translate(-266.007 -86.856)"/><path d="m424.024 123.278-.251 5.715h-1.034c-4 0-6.179 2.07-6.179 6.714v5.607h-5.713v-17.928h5.713v3.429a6.926 6.926 0 0 1 6.179-3.68 4.942 4.942 0 0 1 1.285.143z" transform="translate(-306.761 -101.02)"/><path d="m473.419 129.256v11.357h-5.5v-1.322a7.919 7.919 0 0 1 -5.357 1.857c-4 0-6.679-2.321-6.679-5.856 0-3.5 2.679-5.785 7.464-5.785h4.571v-.357a2.39 2.39 0 0 0 -2.535-2.5c-1.715 0-2.714.68-3 2.25l-5.392-1.107c.786-3.464 3.927-5.642 8.214-5.642 5.038-.001 8.214 2.534 8.214 7.105zm-5.5 4.285v-.392h-3.927c-1.43 0-2.323.75-2.323 1.857 0 1.142 1 1.857 2.5 1.857a3.511 3.511 0 0 0 3.751-3.322z" transform="translate(-338.797 -100.319)"/><path d="m543.97 129.614v11h-5.678v-9.784c0-2.107-1.251-3.537-3.073-3.537-2.249 0-3.713 1.536-3.713 5v8.321h-5.713v-17.929h5.713v1.715a7.393 7.393 0 0 1 5.5-2.249c4.179-.001 6.964 2.962 6.964 7.463z" transform="translate(-388.524 -100.319)"/><path d="m614.994 140.969c0 5.535-4.714 8.571-10.535 8.571-4.107 0-7.213-1.428-8.964-4.32l4.751-2.928c1.32 1.606 2.356 2.213 4.213 2.213 2.572 0 4.822-1.285 4.822-4.107v-1.214a8.066 8.066 0 0 1 -5.572 1.964c-4.75 0-8.749-3.821-8.749-9.5 0-5.642 4-9.5 8.749-9.5a8.072 8.072 0 0 1 5.572 1.963v-1.428h5.713zm-5.713-9.32a4.473 4.473 0 0 0 -4.393-4.644 4.655 4.655 0 0 0 0 9.285 4.45 4.45 0 0 0 4.393-4.641z" transform="translate(-437.724 -100.319)"/><path d="m690.177 133.114h-13.142a4.142 4.142 0 0 0 7.677 1.392l5.071 1.034c-1.536 3.786-4.785 5.607-8.892 5.607a9.5 9.5 0 0 1 .035-19c5.071 0 9.142 3.641 9.25 9.5zm-13.036-3.5h7.393a3.583 3.583 0 0 0 -3.607-2.822 3.93 3.93 0 0 0 -3.786 2.822z" transform="translate(-492.116 -100.319)"/></g><path d="m759.152 114.937c2.213.178 4.607 1.892 4.607 5.5 0 3.964-2.679 6.714-7.893 6.714h-12.427v-23.928h12.392c4.393 0 7.248 2.607 7.248 6.535a4.781 4.781 0 0 1 -3.927 5.035zm-9.821-1.821h5.143a2.629 2.629 0 0 0 2.893-2.679 2.481 2.481 0 0 0 -2.679-2.464h-5.356zm5.5 9.285c1.894 0 2.93-1.036 2.93-2.679a2.548 2.548 0 0 0 -2.822-2.571h-5.607v5.249z" fill="#f8c218" transform="translate(-543.338 -86.856)"/><path d="m836.8 133.114h-13.145a4.142 4.142 0 0 0 7.677 1.392l5.071 1.034c-1.536 3.786-4.785 5.607-8.892 5.607a9.5 9.5 0 0 1 .036-19c5.07 0 9.142 3.641 9.25 9.5zm-13.036-3.5h7.393a3.583 3.583 0 0 0 -3.607-2.822 3.93 3.93 0 0 0 -3.789 2.822z" fill="#f8c218" transform="translate(-596.408 -100.319)"/><path d="m904.73 133.114h-13.142a4.142 4.142 0 0 0 7.677 1.392l5.071 1.034c-1.536 3.786-4.785 5.607-8.892 5.607a9.5 9.5 0 0 1 .036-19c5.07 0 9.142 3.641 9.25 9.5zm-13.036-3.5h7.393a3.583 3.583 0 0 0 -3.607-2.822 3.929 3.929 0 0 0 -3.786 2.822z" fill="#f8c218" transform="translate(-644.73 -100.319)"/><g><ellipse cx="30.48" cy="30" fill="#0f1225" rx="30.48" ry="30"/><path d="m140 101.842h-14.485a2.144 2.144 0 1 1 0-4.288h14.485a2.144 2.144 0 1 1 0 4.288z" fill="#48b9b7" transform="translate(-102.276 -82.512)"/><path d="m134.065 169.565h-22.583a2.144 2.144 0 0 1 0-4.288h22.583a2.144 2.144 0 1 1 0 4.288z" fill="#f8c417" transform="translate(-92.294 -131.015)"/><path d="m140 192.139h-14.485a2.144 2.144 0 1 1 0-4.288h14.485a2.144 2.144 0 1 1 0 4.288z" fill="#48b9b7" transform="translate(-102.276 -147.182)"/><path d="m128.132 142.7h-30.688a2.144 2.144 0 1 0 0 4.288h17.009a1.8 1.8 0 0 1 1.073 1.363l.376 2.344a1.814 1.814 0 0 0 3.59-.053l.292-2.238a1.8 1.8 0 0 1 1.078-1.416h7.27a2.144 2.144 0 0 0 0-4.288z" fill="#48b9b7" transform="translate(-82.308 -114.896)"/><path d="m134.065 120.128h-22.583a2.144 2.144 0 1 0 0 4.288h7.28a1.588 1.588 0 0 1 1.574 1.382l.255 1.959a1.588 1.588 0 0 0 3.142.046l.329-2.052a1.588 1.588 0 0 1 1.568-1.336h8.435a2.144 2.144 0 1 0 0-4.288z" fill="#f8c417" transform="translate(-92.294 -98.713)"/></g></svg>